<svg width="163" height="32" viewBox="0 0 163 32" fill="none" xmlns="http://www.w3.org/2000/svg">
<path d="M16.6541 31.6317L2.73362 1.6039H10.2616L19.2615 23.5149L16.6541 31.6317ZM16.6541 31.6317L16.5279 26.5009L27.21 1.47773H30.238L19.0933 26.1224C19.0372 26.2906 18.897 26.613 18.6727 27.0896C18.4765 27.5382 18.2522 28.0569 17.9998 28.6457C17.7475 29.2345 17.5232 29.8093 17.3269 30.37C17.1587 30.9027 17.0606 31.3233 17.0326 31.6317H16.6541ZM25.9484 4.42163C26.3128 3.58052 26.2708 2.93566 25.8222 2.48707C25.3736 2.01043 24.883 1.77212 24.3502 1.77212H23.9717V1.35156H32.9717V1.77212C32.9717 1.77212 32.9016 1.77212 32.7614 1.77212C32.6492 1.77212 32.5932 1.77212 32.5932 1.77212C31.9763 1.77212 31.3175 1.9824 30.6165 2.40296C29.9437 2.79548 29.3829 3.46837 28.9343 4.42163H25.9484ZM11.4392 4.42163H4.03735C3.58875 3.46837 3.01399 2.79548 2.31306 2.40296C1.64017 1.9824 0.9813 1.77212 0.336446 1.77212C0.336446 1.77212 0.280371 1.77212 0.168223 1.77212C0.0560743 1.77212 0 1.77212 0 1.77212V1.35156H13.3737V1.77212H12.9952C12.4625 1.77212 11.9859 2.01043 11.5653 2.48707C11.1728 2.93566 11.1307 3.58052 11.4392 4.42163Z" fill="#412A37"/>
<path d="M41.7117 5.55713V30.7906H35.6557V5.55713H41.7117ZM35.7818 28.141V30.7906H32.7118V30.37C32.7118 30.37 32.7959 30.37 32.9641 30.37C33.1323 30.37 33.2305 30.37 33.2585 30.37C33.9034 30.37 34.4641 30.1597 34.9407 29.7392C35.4174 29.2906 35.6557 28.7579 35.6557 28.141H35.7818ZM41.6276 28.141H41.7117C41.7397 28.7579 41.978 29.2906 42.4266 29.7392C42.9033 30.1597 43.478 30.37 44.1509 30.37C44.1509 30.37 44.221 30.37 44.3612 30.37C44.5294 30.37 44.6276 30.37 44.6556 30.37V30.7906H41.6276V28.141ZM41.6276 8.20664V5.55713H44.6556L44.6135 5.97769C44.6135 5.97769 44.5434 5.97769 44.4033 5.97769C44.2631 5.97769 44.179 5.97769 44.1509 5.97769C43.478 5.97769 42.9033 6.18797 42.4266 6.60852C41.978 7.02908 41.7397 7.56179 41.7117 8.20664H41.6276ZM35.7818 8.20664H35.6557C35.6557 7.56179 35.4174 7.02908 34.9407 6.60852C34.4641 6.18797 33.8893 5.97769 33.2164 5.97769C33.2164 5.97769 33.1323 5.97769 32.9641 5.97769C32.7959 5.97769 32.7118 5.97769 32.7118 5.97769V5.55713H35.7818V8.20664Z" fill="#412A37"/>
<path d="M72.3608 20.2346L72.8234 26.585C72.2907 27.4822 71.5477 28.2952 70.5944 29.0242C69.6412 29.7251 68.4776 30.2859 67.1038 30.7064C65.73 31.127 64.1319 31.3373 62.3095 31.3373C59.1693 31.3092 56.4637 30.7765 54.1927 29.7392C51.9217 28.7018 50.1694 27.2158 48.9357 25.2813C47.7301 23.3187 47.1273 20.9355 47.1273 18.1318C47.1273 15.3841 47.7301 13.043 48.9357 11.1085C50.1413 9.14588 51.8796 7.6459 54.1507 6.60852C56.4217 5.54311 59.1413 5.01041 62.3095 5.01041C64.216 5.01041 65.9823 5.19265 67.6085 5.55713C69.2627 5.92162 70.6365 6.38423 71.7299 6.94497L71.772 13.6318H71.4355C70.7346 11.0524 69.6271 9.24402 68.1131 8.20664C66.5991 7.16927 64.8048 6.65058 62.73 6.65058C60.6833 6.65058 58.973 7.12721 57.5992 8.08047C56.2534 9.03374 55.2301 10.3655 54.5292 12.0758C53.8563 13.786 53.5198 15.7907 53.5198 18.0897C53.5198 20.4168 53.8563 22.4355 54.5292 24.1458C55.2301 25.856 56.2394 27.1878 57.5572 28.141C58.8749 29.0943 60.459 29.599 62.3095 29.655C64.3001 29.655 65.9403 29.3466 67.23 28.7298C68.5477 28.113 69.5851 27.1177 70.3421 25.7439C71.1271 24.37 71.6879 22.5336 72.0243 20.2346H72.3608Z" fill="#412A37"/>
<path d="M84.8352 5.55713V30.7906H78.7792V5.55713H84.8352ZM78.9054 28.141V30.7906H75.8353V30.37C75.8353 30.37 75.9194 30.37 76.0876 30.37C76.2558 30.37 76.354 30.37 76.382 30.37C77.0269 30.37 77.5876 30.1597 78.0642 29.7392C78.5409 29.2906 78.7792 28.7579 78.7792 28.141H78.9054ZM84.7511 28.141H84.8352C84.8632 28.7579 85.1016 29.2906 85.5502 29.7392C86.0268 30.1597 86.6015 30.37 87.2744 30.37C87.2744 30.37 87.3445 30.37 87.4847 30.37C87.6529 30.37 87.7511 30.37 87.7791 30.37V30.7906H84.7511V28.141ZM84.7511 8.20664V5.55713H87.7791L87.7371 5.97769C87.7371 5.97769 87.667 5.97769 87.5268 5.97769C87.3866 5.97769 87.3025 5.97769 87.2744 5.97769C86.6015 5.97769 86.0268 6.18797 85.5502 6.60852C85.1016 7.02908 84.8632 7.56179 84.8352 8.20664H84.7511ZM78.9054 8.20664H78.7792C78.7792 7.56179 78.5409 7.02908 78.0642 6.60852C77.5876 6.18797 77.0128 5.97769 76.34 5.97769C76.34 5.97769 76.2558 5.97769 76.0876 5.97769C75.9194 5.97769 75.8353 5.97769 75.8353 5.97769V5.55713H78.9054V8.20664Z" fill="#412A37"/>
<path d="M94.7899 5.55713H101.771C102.865 5.55713 103.972 5.64124 105.094 5.80947C106.215 5.97769 107.238 6.2861 108.164 6.73469C109.089 7.18329 109.832 7.81412 110.393 8.6272C110.953 9.44028 111.234 10.5057 111.234 11.8234C111.234 12.8888 111.009 13.8 110.561 14.5571C110.112 15.3141 109.537 15.9028 108.837 16.3234C108.136 16.7439 107.393 16.9823 106.608 17.0383C107.841 17.1224 108.949 17.4449 109.93 18.0056C110.911 18.5664 111.696 19.3234 112.285 20.2766C112.902 21.2019 113.21 22.3093 113.21 23.599C113.21 24.9168 112.93 26.0383 112.369 26.9635C111.808 27.8607 111.037 28.6037 110.056 29.1924C109.075 29.7532 107.939 30.1597 106.65 30.4121C105.388 30.6644 104.056 30.7906 102.654 30.7906H98.8693C98.8693 30.7906 98.8693 30.6504 98.8693 30.37C98.8693 30.0896 98.8693 29.8093 98.8693 29.5289C98.8693 29.2485 98.8693 29.1083 98.8693 29.1083H100.888C101.897 29.1083 102.809 28.9261 103.622 28.5616C104.463 28.1691 105.136 27.5382 105.64 26.6691C106.145 25.7999 106.397 24.6504 106.397 23.2205C106.397 22.2392 106.243 21.3841 105.935 20.6551C105.654 19.8981 105.248 19.2953 104.715 18.8467C104.182 18.3701 103.552 18.0196 102.823 17.7953C102.094 17.571 101.295 17.4589 100.425 17.4589V17.0804C101.042 17.0804 101.631 16.9963 102.192 16.8281C102.752 16.6318 103.229 16.3514 103.622 15.9869C104.042 15.5944 104.365 15.0898 104.589 14.4729C104.841 13.8561 104.967 13.1131 104.967 12.244C104.967 10.3655 104.533 9.06177 103.664 8.33281C102.795 7.57581 101.701 7.1973 100.383 7.1973H95.1684C95.1684 7.16927 95.1264 7.02908 95.0423 6.77675C94.9862 6.49638 94.9301 6.23002 94.874 5.97769C94.818 5.69732 94.7899 5.55713 94.7899 5.55713ZM99.1637 5.55713V30.7906H93.1918V5.55713H99.1637ZM93.318 28.141V30.7906H90.4582V30.37C90.4862 30.37 90.5563 30.37 90.6685 30.37C90.8087 30.37 90.8928 30.37 90.9208 30.37C91.5937 30.37 92.1404 30.1597 92.561 29.7392C93.0096 29.2906 93.2198 28.7579 93.1918 28.141H93.318ZM93.318 8.20664H93.1918C93.2198 7.53375 93.0096 7.00104 92.561 6.60852C92.1404 6.18797 91.5937 5.97769 90.9208 5.97769C90.8928 5.97769 90.8087 5.97769 90.6685 5.97769C90.5563 5.97769 90.4862 5.97769 90.4582 5.97769V5.55713H93.318V8.20664Z" fill="#412A37"/>
<path d="M124.629 5.55713V30.7906H118.573V5.55713H124.629ZM134.47 29.1083L135.437 30.7906H124.545V29.1083H134.47ZM133.04 17.4589V19.1411H124.545V17.4589H133.04ZM134.933 5.55713V7.23936H124.545V5.55713H134.933ZM137.162 23.0523L135.564 30.7906H128.288L129.592 29.1083C130.797 29.1083 131.863 28.87 132.788 28.3934C133.741 27.8887 134.554 27.1878 135.227 26.2906C135.9 25.3654 136.419 24.2859 136.783 23.0523H137.162ZM133.04 19.057V22.7579H132.62V22.4215C132.62 21.4962 132.325 20.7252 131.737 20.1084C131.176 19.4916 130.405 19.1692 129.423 19.1411V19.057H133.04ZM133.04 13.8421V17.543H129.423V17.4589C130.405 17.4309 131.176 17.1084 131.737 16.4916C132.325 15.8468 132.62 15.0617 132.62 14.1365V13.8421H133.04ZM134.933 7.15525V11.6132H134.512V11.2347C134.512 10.001 134.176 9.03374 133.503 8.33281C132.858 7.63188 131.919 7.2674 130.685 7.23936V7.15525H134.933ZM134.933 4.9263V5.93563L130.517 5.55713C131.33 5.55713 132.185 5.48704 133.082 5.34685C133.979 5.17863 134.596 5.03845 134.933 4.9263ZM118.657 28.141L118.867 30.7906H115.755V30.37C115.755 30.37 115.839 30.37 116.008 30.37C116.176 30.37 116.274 30.37 116.302 30.37C116.919 30.37 117.438 30.1597 117.858 29.7392C118.307 29.2906 118.545 28.7579 118.573 28.141H118.657ZM118.657 8.20664H118.573C118.545 7.56179 118.307 7.02908 117.858 6.60852C117.438 6.18797 116.919 5.97769 116.302 5.97769C116.274 5.97769 116.176 5.97769 116.008 5.97769C115.839 5.97769 115.755 5.97769 115.755 5.97769V5.55713H118.867L118.657 8.20664Z" fill="#412A37"/>
<path d="M153.832 5.6833V30.7906H147.734V5.6833H153.832ZM163 5.51508V7.1973H138.608V5.51508H163ZM163 7.07114V11.529H162.537V11.1505C162.565 9.94494 162.229 8.99168 161.528 8.29075C160.855 7.58983 159.916 7.22534 158.71 7.1973V7.07114H163ZM163 4.88424V5.93563L158.542 5.51508C159.075 5.51508 159.65 5.48704 160.266 5.43096C160.883 5.34685 161.444 5.26274 161.949 5.17863C162.453 5.06648 162.804 4.96835 163 4.88424ZM147.818 28.141V30.7906H145V30.37C145 30.37 145.07 30.37 145.21 30.37C145.379 30.37 145.463 30.37 145.463 30.37C146.08 30.37 146.598 30.1597 147.019 29.7392C147.467 29.2906 147.706 28.7579 147.734 28.141H147.818ZM153.706 28.141H153.832C153.832 28.7579 154.056 29.2906 154.505 29.7392C154.953 30.1597 155.5 30.37 156.145 30.37C156.145 30.37 156.215 30.37 156.355 30.37C156.523 30.37 156.608 30.37 156.608 30.37V30.7906H153.706V28.141ZM142.897 7.07114V7.1973C141.664 7.22534 140.71 7.58983 140.038 8.29075C139.393 8.99168 139.07 9.94494 139.07 11.1505V11.529H138.608V7.07114H142.897ZM138.608 4.88424C138.86 4.94032 139.225 5.02443 139.701 5.13658C140.206 5.24873 140.753 5.34685 141.341 5.43096C141.958 5.48704 142.519 5.51508 143.024 5.51508L138.608 5.93563V4.88424Z" fill="#412A37"/>
<path d="M16.6541 30.6492L2.73362 0.621477H10.2616L19.2615 22.5325L16.6541 30.6492ZM16.6541 30.6492L16.5279 25.5184L27.21 0.495309H30.238L19.0933 25.1399C19.0372 25.3082 18.897 25.6306 18.6727 26.1072C18.4765 26.5558 18.2522 27.0745 17.9998 27.6633C17.7475 28.2521 17.5232 28.8268 17.3269 29.3876C17.1587 29.9203 17.0606 30.3408 17.0326 30.6492H16.6541ZM25.9484 3.43921C26.3128 2.59809 26.2708 1.95324 25.8222 1.50464C25.3736 1.02801 24.883 0.789697 24.3502 0.789697H23.9717V0.369141H32.9717V0.789697C32.9717 0.789697 32.9016 0.789697 32.7614 0.789697C32.6492 0.789697 32.5932 0.789697 32.5932 0.789697C31.9763 0.789697 31.3175 0.999976 30.6165 1.42053C29.9437 1.81305 29.3829 2.48594 28.9343 3.43921H25.9484ZM11.4392 3.43921H4.03735C3.58875 2.48594 3.01399 1.81305 2.31306 1.42053C1.64017 0.999976 0.9813 0.789697 0.336446 0.789697C0.336446 0.789697 0.280371 0.789697 0.168223 0.789697C0.0560743 0.789697 0 0.789697 0 0.789697V0.369141H13.3737V0.789697H12.9952C12.4625 0.789697 11.9859 1.02801 11.5653 1.50464C11.1728 1.95324 11.1307 2.59809 11.4392 3.43921Z" fill="#FFF9F4"/>
<path d="M41.7117 4.57471V29.8081H35.6557V4.57471H41.7117ZM35.7818 27.1586V29.8081H32.7118V29.3876C32.7118 29.3876 32.7959 29.3876 32.9641 29.3876C33.1323 29.3876 33.2305 29.3876 33.2585 29.3876C33.9034 29.3876 34.4641 29.1773 34.9407 28.7567C35.4174 28.3081 35.6557 27.7754 35.6557 27.1586H35.7818ZM41.6276 27.1586H41.7117C41.7397 27.7754 41.978 28.3081 42.4266 28.7567C42.9033 29.1773 43.478 29.3876 44.1509 29.3876C44.1509 29.3876 44.221 29.3876 44.3612 29.3876C44.5294 29.3876 44.6276 29.3876 44.6556 29.3876V29.8081H41.6276V27.1586ZM41.6276 7.22422V4.57471H44.6556L44.6135 4.99527C44.6135 4.99527 44.5434 4.99527 44.4033 4.99527C44.2631 4.99527 44.179 4.99527 44.1509 4.99527C43.478 4.99527 42.9033 5.20555 42.4266 5.6261C41.978 6.04666 41.7397 6.57937 41.7117 7.22422H41.6276ZM35.7818 7.22422H35.6557C35.6557 6.57937 35.4174 6.04666 34.9407 5.6261C34.4641 5.20555 33.8893 4.99527 33.2164 4.99527C33.2164 4.99527 33.1323 4.99527 32.9641 4.99527C32.7959 4.99527 32.7118 4.99527 32.7118 4.99527V4.57471H35.7818V7.22422Z" fill="#FFF9F4"/>
<path d="M72.3608 19.2521L72.8234 25.6026C72.2907 26.4997 71.5477 27.3128 70.5944 28.0418C69.6412 28.7427 68.4776 29.3035 67.1038 29.724C65.73 30.1446 64.1319 30.3549 62.3095 30.3549C59.1693 30.3268 56.4637 29.7941 54.1927 28.7567C51.9217 27.7194 50.1694 26.2334 48.9357 24.2988C47.7301 22.3362 47.1273 19.9531 47.1273 17.1494C47.1273 14.4017 47.7301 12.0606 48.9357 10.1261C50.1413 8.16346 51.8796 6.66348 54.1507 5.6261C56.4217 4.56069 59.1413 4.02799 62.3095 4.02799C64.216 4.02799 65.9823 4.21023 67.6085 4.57471C69.2627 4.93919 70.6365 5.40181 71.7299 5.96255L71.772 12.6494H71.4355C70.7346 10.07 69.6271 8.26159 68.1131 7.22422C66.5991 6.18685 64.8048 5.66816 62.73 5.66816C60.6833 5.66816 58.973 6.14479 57.5992 7.09805C56.2534 8.05131 55.2301 9.38308 54.5292 11.0933C53.8563 12.8036 53.5198 14.8083 53.5198 17.1073C53.5198 19.4344 53.8563 21.4531 54.5292 23.1633C55.2301 24.8736 56.2394 26.2054 57.5572 27.1586C58.8749 28.1119 60.459 28.6166 62.3095 28.6726C64.3001 28.6726 65.9403 28.3642 67.23 27.7474C68.5477 27.1306 69.5851 26.1353 70.3421 24.7614C71.1271 23.3876 71.6879 21.5512 72.0243 19.2521H72.3608Z" fill="#FFF9F4"/>
<path d="M84.8352 4.57471V29.8081H78.7792V4.57471H84.8352ZM78.9054 27.1586V29.8081H75.8353V29.3876C75.8353 29.3876 75.9194 29.3876 76.0876 29.3876C76.2558 29.3876 76.354 29.3876 76.382 29.3876C77.0269 29.3876 77.5876 29.1773 78.0642 28.7567C78.5409 28.3081 78.7792 27.7754 78.7792 27.1586H78.9054ZM84.7511 27.1586H84.8352C84.8632 27.7754 85.1016 28.3081 85.5502 28.7567C86.0268 29.1773 86.6015 29.3876 87.2744 29.3876C87.2744 29.3876 87.3445 29.3876 87.4847 29.3876C87.6529 29.3876 87.7511 29.3876 87.7791 29.3876V29.8081H84.7511V27.1586ZM84.7511 7.22422V4.57471H87.7791L87.7371 4.99527C87.7371 4.99527 87.667 4.99527 87.5268 4.99527C87.3866 4.99527 87.3025 4.99527 87.2744 4.99527C86.6015 4.99527 86.0268 5.20555 85.5502 5.6261C85.1016 6.04666 84.8632 6.57937 84.8352 7.22422H84.7511ZM78.9054 7.22422H78.7792C78.7792 6.57937 78.5409 6.04666 78.0642 5.6261C77.5876 5.20555 77.0128 4.99527 76.34 4.99527C76.34 4.99527 76.2558 4.99527 76.0876 4.99527C75.9194 4.99527 75.8353 4.99527 75.8353 4.99527V4.57471H78.9054V7.22422Z" fill="#FFF9F4"/>
<path d="M94.7899 4.57471H101.771C102.865 4.57471 103.972 4.65882 105.094 4.82704C106.215 4.99527 107.238 5.30368 108.164 5.75227C109.089 6.20086 109.832 6.8317 110.393 7.64478C110.953 8.45785 111.234 9.52326 111.234 10.841C111.234 11.9064 111.009 12.8176 110.561 13.5746C110.112 14.3316 109.537 14.9204 108.837 15.341C108.136 15.7615 107.393 15.9998 106.608 16.0559C107.841 16.14 108.949 16.4625 109.93 17.0232C110.911 17.5839 111.696 18.3409 112.285 19.2942C112.902 20.2194 113.21 21.3269 113.21 22.6166C113.21 23.9343 112.93 25.0558 112.369 25.9811C111.808 26.8783 111.037 27.6212 110.056 28.21C109.075 28.7708 107.939 29.1773 106.65 29.4296C105.388 29.682 104.056 29.8081 102.654 29.8081H98.8693C98.8693 29.8081 98.8693 29.6679 98.8693 29.3876C98.8693 29.1072 98.8693 28.8268 98.8693 28.5465C98.8693 28.2661 98.8693 28.1259 98.8693 28.1259H100.888C101.897 28.1259 102.809 27.9437 103.622 27.5792C104.463 27.1867 105.136 26.5558 105.64 25.6867C106.145 24.8175 106.397 23.668 106.397 22.2381C106.397 21.2568 106.243 20.4017 105.935 19.6727C105.654 18.9157 105.248 18.3129 104.715 17.8643C104.182 17.3877 103.552 17.0372 102.823 16.8129C102.094 16.5886 101.295 16.4765 100.425 16.4765V16.098C101.042 16.098 101.631 16.0139 102.192 15.8456C102.752 15.6494 103.229 15.369 103.622 15.0045C104.042 14.612 104.365 14.1073 104.589 13.4905C104.841 12.8737 104.967 12.1307 104.967 11.2616C104.967 9.38308 104.533 8.07935 103.664 7.35039C102.795 6.59338 101.701 6.21488 100.383 6.21488H95.1684C95.1684 6.18685 95.1264 6.04666 95.0423 5.79433C94.9862 5.51395 94.9301 5.2476 94.874 4.99527C94.818 4.7149 94.7899 4.57471 94.7899 4.57471ZM99.1637 4.57471V29.8081H93.1918V4.57471H99.1637ZM93.318 27.1586V29.8081H90.4582V29.3876C90.4862 29.3876 90.5563 29.3876 90.6685 29.3876C90.8087 29.3876 90.8928 29.3876 90.9208 29.3876C91.5937 29.3876 92.1404 29.1773 92.561 28.7567C93.0096 28.3081 93.2198 27.7754 93.1918 27.1586H93.318ZM93.318 7.22422H93.1918C93.2198 6.55133 93.0096 6.01862 92.561 5.6261C92.1404 5.20555 91.5937 4.99527 90.9208 4.99527C90.8928 4.99527 90.8087 4.99527 90.6685 4.99527C90.5563 4.99527 90.4862 4.99527 90.4582 4.99527V4.57471H93.318V7.22422Z" fill="#FFF9F4"/>
<path d="M124.629 4.57471V29.8081H118.573V4.57471H124.629ZM134.47 28.1259L135.437 29.8081H124.545V28.1259H134.47ZM133.04 16.4765V18.1587H124.545V16.4765H133.04ZM134.933 4.57471V6.25694H124.545V4.57471H134.933ZM137.162 22.0699L135.564 29.8081H128.288L129.592 28.1259C130.797 28.1259 131.863 27.8876 132.788 27.411C133.741 26.9063 134.554 26.2054 135.227 25.3082C135.9 24.3829 136.419 23.3035 136.783 22.0699H137.162ZM133.04 18.0746V21.7755H132.62V21.439C132.62 20.5138 132.325 19.7428 131.737 19.126C131.176 18.5092 130.405 18.1867 129.423 18.1587V18.0746H133.04ZM133.04 12.8597V16.5606H129.423V16.4765C130.405 16.4484 131.176 16.126 131.737 15.5092C132.325 14.8643 132.62 14.0793 132.62 13.1541V12.8597H133.04ZM134.933 6.17283V10.6307H134.512V10.2522C134.512 9.0186 134.176 8.05132 133.503 7.35039C132.858 6.64946 131.919 6.28498 130.685 6.25694V6.17283H134.933ZM134.933 3.94388V4.95321L130.517 4.57471C131.33 4.57471 132.185 4.50462 133.082 4.36443C133.979 4.19621 134.596 4.05603 134.933 3.94388ZM118.657 27.1586L118.867 29.8081H115.755V29.3876C115.755 29.3876 115.839 29.3876 116.008 29.3876C116.176 29.3876 116.274 29.3876 116.302 29.3876C116.919 29.3876 117.438 29.1773 117.858 28.7567C118.307 28.3081 118.545 27.7754 118.573 27.1586H118.657ZM118.657 7.22422H118.573C118.545 6.57937 118.307 6.04666 117.858 5.6261C117.438 5.20555 116.919 4.99527 116.302 4.99527C116.274 4.99527 116.176 4.99527 116.008 4.99527C115.839 4.99527 115.755 4.99527 115.755 4.99527V4.57471H118.867L118.657 7.22422Z" fill="#FFF9F4"/>
<path d="M153.832 4.70088V29.8081H147.734V4.70088H153.832ZM163 4.53266V6.21488H138.608V4.53266H163ZM163 6.08872V10.5466H162.537V10.1681C162.565 8.96252 162.229 8.00926 161.528 7.30833C160.855 6.6074 159.916 6.24292 158.71 6.21488V6.08872H163ZM163 3.90182V4.95321L158.542 4.53266C159.075 4.53266 159.65 4.50462 160.266 4.44854C160.883 4.36443 161.444 4.28032 161.949 4.19621C162.453 4.08406 162.804 3.98593 163 3.90182ZM147.818 27.1586V29.8081H145V29.3876C145 29.3876 145.07 29.3876 145.21 29.3876C145.379 29.3876 145.463 29.3876 145.463 29.3876C146.08 29.3876 146.598 29.1773 147.019 28.7567C147.467 28.3081 147.706 27.7754 147.734 27.1586H147.818ZM153.706 27.1586H153.832C153.832 27.7754 154.056 28.3081 154.505 28.7567C154.953 29.1773 155.5 29.3876 156.145 29.3876C156.145 29.3876 156.215 29.3876 156.355 29.3876C156.523 29.3876 156.608 29.3876 156.608 29.3876V29.8081H153.706V27.1586ZM142.897 6.08872V6.21488C141.664 6.24292 140.71 6.6074 140.038 7.30833C139.393 8.00926 139.07 8.96252 139.07 10.1681V10.5466H138.608V6.08872H142.897ZM138.608 3.90182C138.86 3.95789 139.225 4.04201 139.701 4.15415C140.206 4.2663 140.753 4.36443 141.341 4.44854C141.958 4.50462 142.519 4.53266 143.024 4.53266L138.608 4.95321V3.90182Z" fill="#FFF9F4"/>
<path d="M16.6541 30.9774L2.73362 0.949602H10.2616L19.2615 22.8606L16.6541 30.9774ZM16.6541 30.9774L16.5279 25.8466L27.21 0.823434H30.238L19.0933 25.4681C19.0372 25.6363 18.897 25.9587 18.6727 26.4354C18.4765 26.8839 18.2522 27.4026 17.9998 27.9914C17.7475 28.5802 17.5232 29.155 17.3269 29.7157C17.1587 30.2484 17.0606 30.669 17.0326 30.9774H16.6541ZM25.9484 3.76733C26.3128 2.92622 26.2708 2.28136 25.8222 1.83277C25.3736 1.35614 24.883 1.11782 24.3502 1.11782H23.9717V0.697266H32.9717V1.11782C32.9717 1.11782 32.9016 1.11782 32.7614 1.11782C32.6492 1.11782 32.5932 1.11782 32.5932 1.11782C31.9763 1.11782 31.3175 1.3281 30.6165 1.74866C29.9437 2.14118 29.3829 2.81407 28.9343 3.76733H25.9484ZM11.4392 3.76733H4.03735C3.58875 2.81407 3.01399 2.14118 2.31306 1.74866C1.64017 1.3281 0.9813 1.11782 0.336446 1.11782C0.336446 1.11782 0.280371 1.11782 0.168223 1.11782C0.0560743 1.11782 0 1.11782 0 1.11782V0.697266H13.3737V1.11782H12.9952C12.4625 1.11782 11.9859 1.35614 11.5653 1.83277C11.1728 2.28136 11.1307 2.92622 11.4392 3.76733Z" fill="url(#paint0_linear_10080_92942)"/>
<path d="M41.7117 4.90284V30.1363H35.6557V4.90284H41.7117ZM35.7818 27.4867V30.1363H32.7118V29.7157C32.7118 29.7157 32.7959 29.7157 32.9641 29.7157C33.1323 29.7157 33.2305 29.7157 33.2585 29.7157C33.9034 29.7157 34.4641 29.5054 34.9407 29.0849C35.4174 28.6363 35.6557 28.1036 35.6557 27.4867H35.7818ZM41.6276 27.4867H41.7117C41.7397 28.1036 41.978 28.6363 42.4266 29.0849C42.9033 29.5054 43.478 29.7157 44.1509 29.7157C44.1509 29.7157 44.221 29.7157 44.3612 29.7157C44.5294 29.7157 44.6276 29.7157 44.6556 29.7157V30.1363H41.6276V27.4867ZM41.6276 7.55235V4.90284H44.6556L44.6135 5.32339C44.6135 5.32339 44.5434 5.32339 44.4033 5.32339C44.2631 5.32339 44.179 5.32339 44.1509 5.32339C43.478 5.32339 42.9033 5.53367 42.4266 5.95423C41.978 6.37479 41.7397 6.90749 41.7117 7.55235H41.6276ZM35.7818 7.55235H35.6557C35.6557 6.90749 35.4174 6.37479 34.9407 5.95423C34.4641 5.53367 33.8893 5.32339 33.2164 5.32339C33.2164 5.32339 33.1323 5.32339 32.9641 5.32339C32.7959 5.32339 32.7118 5.32339 32.7118 5.32339V4.90284H35.7818V7.55235Z" fill="url(#paint1_linear_10080_92942)"/>
<path d="M72.3608 19.5803L72.8234 25.9307C72.2907 26.8279 71.5477 27.641 70.5944 28.3699C69.6412 29.0708 68.4776 29.6316 67.1038 30.0521C65.73 30.4727 64.1319 30.683 62.3095 30.683C59.1693 30.6549 56.4637 30.1222 54.1927 29.0849C51.9217 28.0475 50.1694 26.5615 48.9357 24.627C47.7301 22.6644 47.1273 20.2812 47.1273 17.4775C47.1273 14.7299 47.7301 12.3888 48.9357 10.4542C50.1413 8.49159 51.8796 6.9916 54.1507 5.95423C56.4217 4.88882 59.1413 4.35611 62.3095 4.35611C64.216 4.35611 65.9823 4.53835 67.6085 4.90284C69.2627 5.26732 70.6365 5.72993 71.7299 6.29067L71.772 12.9775H71.4355C70.7346 10.3981 69.6271 8.58972 68.1131 7.55235C66.5991 6.51497 64.8048 5.99629 62.73 5.99629C60.6833 5.99629 58.973 6.47292 57.5992 7.42618C56.2534 8.37944 55.2301 9.7112 54.5292 11.4215C53.8563 13.1317 53.5198 15.1364 53.5198 17.4354C53.5198 19.7625 53.8563 21.7812 54.5292 23.4915C55.2301 25.2017 56.2394 26.5335 57.5572 27.4867C58.8749 28.44 60.459 28.9447 62.3095 29.0007C64.3001 29.0007 65.9403 28.6923 67.23 28.0755C68.5477 27.4587 69.5851 26.4634 70.3421 25.0896C71.1271 23.7157 71.6879 21.8793 72.0243 19.5803H72.3608Z" fill="url(#paint2_linear_10080_92942)"/>
<path d="M84.8352 4.90284V30.1363H78.7792V4.90284H84.8352ZM78.9054 27.4867V30.1363H75.8353V29.7157C75.8353 29.7157 75.9194 29.7157 76.0876 29.7157C76.2558 29.7157 76.354 29.7157 76.382 29.7157C77.0269 29.7157 77.5876 29.5054 78.0642 29.0849C78.5409 28.6363 78.7792 28.1036 78.7792 27.4867H78.9054ZM84.7511 27.4867H84.8352C84.8632 28.1036 85.1016 28.6363 85.5502 29.0849C86.0268 29.5054 86.6015 29.7157 87.2744 29.7157C87.2744 29.7157 87.3445 29.7157 87.4847 29.7157C87.6529 29.7157 87.7511 29.7157 87.7791 29.7157V30.1363H84.7511V27.4867ZM84.7511 7.55235V4.90284H87.7791L87.7371 5.32339C87.7371 5.32339 87.667 5.32339 87.5268 5.32339C87.3866 5.32339 87.3025 5.32339 87.2744 5.32339C86.6015 5.32339 86.0268 5.53367 85.5502 5.95423C85.1016 6.37479 84.8632 6.90749 84.8352 7.55235H84.7511ZM78.9054 7.55235H78.7792C78.7792 6.90749 78.5409 6.37479 78.0642 5.95423C77.5876 5.53367 77.0128 5.32339 76.34 5.32339C76.34 5.32339 76.2558 5.32339 76.0876 5.32339C75.9194 5.32339 75.8353 5.32339 75.8353 5.32339V4.90284H78.9054V7.55235Z" fill="url(#paint3_linear_10080_92942)"/>
<path d="M94.7899 4.90284H101.771C102.865 4.90284 103.972 4.98695 105.094 5.15517C106.215 5.32339 107.238 5.6318 108.164 6.0804C109.089 6.52899 109.832 7.15982 110.393 7.9729C110.953 8.78598 111.234 9.85139 111.234 11.1691C111.234 12.2345 111.009 13.1458 110.561 13.9028C110.112 14.6598 109.537 15.2485 108.837 15.6691C108.136 16.0897 107.393 16.328 106.608 16.384C107.841 16.4682 108.949 16.7906 109.93 17.3513C110.911 17.9121 111.696 18.6691 112.285 19.6223C112.902 20.5476 113.21 21.655 113.21 22.9447C113.21 24.2625 112.93 25.384 112.369 26.3092C111.808 27.2064 111.037 27.9494 110.056 28.5381C109.075 29.0989 107.939 29.5054 106.65 29.7578C105.388 30.0101 104.056 30.1363 102.654 30.1363H98.8693C98.8693 30.1363 98.8693 29.9961 98.8693 29.7157C98.8693 29.4353 98.8693 29.155 98.8693 28.8746C98.8693 28.5942 98.8693 28.454 98.8693 28.454H100.888C101.897 28.454 102.809 28.2718 103.622 27.9073C104.463 27.5148 105.136 26.8839 105.64 26.0148C106.145 25.1456 106.397 23.9961 106.397 22.5662C106.397 21.5849 106.243 20.7298 105.935 20.0008C105.654 19.2438 105.248 18.641 104.715 18.1924C104.182 17.7158 103.552 17.3653 102.823 17.141C102.094 16.9167 101.295 16.8046 100.425 16.8046V16.4261C101.042 16.4261 101.631 16.342 102.192 16.1738C102.752 15.9775 103.229 15.6971 103.622 15.3326C104.042 14.9401 104.365 14.4355 104.589 13.8186C104.841 13.2018 104.967 12.4588 104.967 11.5897C104.967 9.7112 104.533 8.40748 103.664 7.67851C102.795 6.92151 101.701 6.54301 100.383 6.54301H95.1684C95.1684 6.51497 95.1264 6.37478 95.0423 6.12245C94.9862 5.84208 94.9301 5.57573 94.874 5.32339C94.818 5.04302 94.7899 4.90284 94.7899 4.90284ZM99.1637 4.90284V30.1363H93.1918V4.90284H99.1637ZM93.318 27.4867V30.1363H90.4582V29.7157C90.4862 29.7157 90.5563 29.7157 90.6685 29.7157C90.8087 29.7157 90.8928 29.7157 90.9208 29.7157C91.5937 29.7157 92.1404 29.5054 92.561 29.0849C93.0096 28.6363 93.2198 28.1036 93.1918 27.4867H93.318ZM93.318 7.55235H93.1918C93.2198 6.87945 93.0096 6.34675 92.561 5.95423C92.1404 5.53367 91.5937 5.32339 90.9208 5.32339C90.8928 5.32339 90.8087 5.32339 90.6685 5.32339C90.5563 5.32339 90.4862 5.32339 90.4582 5.32339V4.90284H93.318V7.55235Z" fill="url(#paint4_linear_10080_92942)"/>
<path d="M124.629 4.90284V30.1363H118.573V4.90284H124.629ZM134.47 28.454L135.437 30.1363H124.545V28.454H134.47ZM133.04 16.8046V18.4868H124.545V16.8046H133.04ZM134.933 4.90284V6.58507H124.545V4.90284H134.933ZM137.162 22.398L135.564 30.1363H128.288L129.592 28.454C130.797 28.454 131.863 28.2157 132.788 27.7391C133.741 27.2344 134.554 26.5335 135.227 25.6363C135.9 24.7111 136.419 23.6316 136.783 22.398H137.162ZM133.04 18.4027V22.1036H132.62V21.7672C132.62 20.8419 132.325 20.0709 131.737 19.4541C131.176 18.8373 130.405 18.5149 129.423 18.4868V18.4027H133.04ZM133.04 13.1878V16.8887H129.423V16.8046C130.405 16.7766 131.176 16.4541 131.737 15.8373C132.325 15.1925 132.62 14.4074 132.62 13.4822V13.1878H133.04ZM134.933 6.50095V10.9589H134.512V10.5804C134.512 9.34672 134.176 8.37944 133.503 7.67851C132.858 6.97758 131.919 6.6131 130.685 6.58507V6.50095H134.933ZM134.933 4.272V5.28134L130.517 4.90284C131.33 4.90284 132.185 4.83274 133.082 4.69256C133.979 4.52434 134.596 4.38415 134.933 4.272ZM118.657 27.4867L118.867 30.1363H115.755V29.7157C115.755 29.7157 115.839 29.7157 116.008 29.7157C116.176 29.7157 116.274 29.7157 116.302 29.7157C116.919 29.7157 117.438 29.5054 117.858 29.0849C118.307 28.6363 118.545 28.1036 118.573 27.4867H118.657ZM118.657 7.55235H118.573C118.545 6.90749 118.307 6.37479 117.858 5.95423C117.438 5.53367 116.919 5.32339 116.302 5.32339C116.274 5.32339 116.176 5.32339 116.008 5.32339C115.839 5.32339 115.755 5.32339 115.755 5.32339V4.90284H118.867L118.657 7.55235Z" fill="url(#paint5_linear_10080_92942)"/>
<path d="M153.832 5.029V30.1363H147.734V5.029H153.832ZM163 4.86078V6.54301H138.608V4.86078H163ZM163 6.41684V10.8747H162.537V10.4962C162.565 9.29065 162.229 8.33738 161.528 7.63646C160.855 6.93553 159.916 6.57105 158.71 6.54301V6.41684H163ZM163 4.22994V5.28134L158.542 4.86078C159.075 4.86078 159.65 4.83274 160.266 4.77667C160.883 4.69256 161.444 4.60845 161.949 4.52433C162.453 4.41219 162.804 4.31406 163 4.22994ZM147.818 27.4867V30.1363H145V29.7157C145 29.7157 145.07 29.7157 145.21 29.7157C145.379 29.7157 145.463 29.7157 145.463 29.7157C146.08 29.7157 146.598 29.5054 147.019 29.0849C147.467 28.6363 147.706 28.1036 147.734 27.4867H147.818ZM153.706 27.4867H153.832C153.832 28.1036 154.056 28.6363 154.505 29.0849C154.953 29.5054 155.5 29.7157 156.145 29.7157C156.145 29.7157 156.215 29.7157 156.355 29.7157C156.523 29.7157 156.608 29.7157 156.608 29.7157V30.1363H153.706V27.4867ZM142.897 6.41684V6.54301C141.664 6.57105 140.71 6.93553 140.038 7.63646C139.393 8.33738 139.07 9.29065 139.07 10.4962V10.8747H138.608V6.41684H142.897ZM138.608 4.22994C138.86 4.28602 139.225 4.37013 139.701 4.48228C140.206 4.59443 140.753 4.69256 141.341 4.77667C141.958 4.83274 142.519 4.86078 143.024 4.86078L138.608 5.28134V4.22994Z" fill="url(#paint6_linear_10080_92942)"/>
<defs>
<linearGradient id="paint0_linear_10080_92942" x1="82.2703" y1="-10.8313" x2="82.2703" y2="45.8679" gradientUnits="userSpaceOnUse">
<stop offset="0.265896" stop-color="#E1C7A3"/>
<stop offset="0.5" stop-color="#F5E6C8"/>
<stop offset="0.716763" stop-color="#BD8742"/>
</linearGradient>
<linearGradient id="paint1_linear_10080_92942" x1="82.2703" y1="-10.8313" x2="82.2703" y2="45.8679" gradientUnits="userSpaceOnUse">
<stop offset="0.265896" stop-color="#E1C7A3"/>
<stop offset="0.5" stop-color="#F5E6C8"/>
<stop offset="0.716763" stop-color="#BD8742"/>
</linearGradient>
<linearGradient id="paint2_linear_10080_92942" x1="82.2703" y1="-10.8313" x2="82.2703" y2="45.8679" gradientUnits="userSpaceOnUse">
<stop offset="0.265896" stop-color="#E1C7A3"/>
<stop offset="0.5" stop-color="#F5E6C8"/>
<stop offset="0.716763" stop-color="#BD8742"/>
</linearGradient>
<linearGradient id="paint3_linear_10080_92942" x1="82.2703" y1="-10.8313" x2="82.2703" y2="45.8679" gradientUnits="userSpaceOnUse">
<stop offset="0.265896" stop-color="#E1C7A3"/>
<stop offset="0.5" stop-color="#F5E6C8"/>
<stop offset="0.716763" stop-color="#BD8742"/>
</linearGradient>
<linearGradient id="paint4_linear_10080_92942" x1="82.2703" y1="-10.8313" x2="82.2703" y2="45.8679" gradientUnits="userSpaceOnUse">
<stop offset="0.265896" stop-color="#E1C7A3"/>
<stop offset="0.5" stop-color="#F5E6C8"/>
<stop offset="0.716763" stop-color="#BD8742"/>
</linearGradient>
<linearGradient id="paint5_linear_10080_92942" x1="82.2703" y1="-10.8313" x2="82.2703" y2="45.8679" gradientUnits="userSpaceOnUse">
<stop offset="0.265896" stop-color="#E1C7A3"/>
<stop offset="0.5" stop-color="#F5E6C8"/>
<stop offset="0.716763" stop-color="#BD8742"/>
</linearGradient>
<linearGradient id="paint6_linear_10080_92942" x1="82.2703" y1="-10.8313" x2="82.2703" y2="45.8679" gradientUnits="userSpaceOnUse">
<stop offset="0.265896" stop-color="#E1C7A3"/>
<stop offset="0.5" stop-color="#F5E6C8"/>
<stop offset="0.716763" stop-color="#BD8742"/>
</linearGradient>
</defs>
</svg>
